<svg width="467.000000" height="52.000000" viewBox="0 0 467 52" fill="none" xmlns="http://www.w3.org/2000/svg" xmlns:xlink="http://www.w3.org/1999/xlink">
	<desc>
			Created with Pixso.
	</desc>
	<defs/>
	<path id="The Dragon News" d="M362.16 2.4Q359.29 0.55 354.17 -0.71L333.69 9.05L333.69 15.58Q331.78 14.32 330.55 13.91Q329.32 13.47 327.89 13.47Q326.78 13.47 325.78 13.79Q325.27 13.95 324.78 14.2Q323.64 14.73 322.32 16.16L323.02 17.13Q324.72 15.96 326.39 15.96Q328.24 15.96 330.17 17.1Q332.13 18.25 332.9 19.65Q333.69 21.03 333.69 23.4Q331.75 22.11 330.61 21.73Q329.47 21.32 328.12 21.32Q326.76 21.32 325.59 21.8Q325.4 21.88 325.22 21.97Q323.9 22.58 322.32 24.19L323.02 25.22Q324.08 24.43 324.78 24.19Q325.69 23.9 327.1 23.9Q328.84 23.9 330.27 24.56Q331.56 25.16 332.6 26.3Q333.86 27.68 334.36 30.26Q333.28 29.61 332.25 29.29Q331.26 28.97 330.32 28.97Q329.01 28.97 327.92 29.45Q327.66 29.56 327.42 29.7Q326.13 30.4 324.81 32.04L325.63 32.78Q327.56 31.34 329.26 31.34Q330.71 31.34 331.9 31.9Q332.83 32.33 333.6 33.1Q334.41 33.89 334.85 34.86Q335.39 36.02 335.39 37.43Q335.39 39.06 334.65 40.21Q334.47 40.49 334.24 40.75Q333.55 41.51 332.69 41.81Q332.14 42 331.52 42Q330.79 42 328.77 41.57Q325.45 40.83 323.37 40.83Q321.65 40.83 320.18 41.43Q317.25 42.61 315.26 46.14L316.08 46.87Q317.54 45.87 318.6 45.49Q319.68 45.11 321.06 45.11Q322 45.11 322.82 45.26Q323.2 45.34 326.22 46.22Q329.26 47.13 329.91 47.25Q330.35 47.34 330.8 47.4Q331.48 47.48 332.16 47.48Q332.98 47.48 333.79 47.37Q335.77 47.08 337.64 46.08Q340.31 44.7 341.98 42.62Q343.68 40.51 344.15 38.49Q344.64 36.47 344.64 31.75L344.64 26.59Q347.08 25.25 348.86 24.75Q350.68 24.22 352.73 24.22Q355.19 24.22 357.38 24.98L357.39 24.98Q359.59 25.72 362.25 27.47Q360.14 32.13 355.89 39.43Q353.32 43.88 352.32 46.87L353.49 47.45Q355.28 44.61 357.18 43.47Q359.09 42.33 362.05 42.33Q364.65 42.33 368.64 43.67L373.68 34.24L372.27 33.71Q370.81 36.53 370.37 37Q370.05 37.34 369.67 37.41Q369.57 37.43 369.46 37.43Q368.9 37.43 367.82 37.23Q366.76 37 365.24 37Q365.09 37 364.93 37Q361.54 37.06 358.18 38.55Q365.06 29.38 365.85 28.15Q368.08 24.72 369.05 21.88Q369.96 19.28 370.04 16.65Q370.04 16.41 370.04 16.16Q370.04 14.36 369.65 12.65Q369.15 10.5 368.02 8.49Q367.91 8.28 367.78 8.07Q365.81 4.74 362.16 2.4ZM43.62 0.64L42.53 -0.12Q40.98 2.07 39.93 2.69Q38.9 3.27 36.94 3.27Q34.01 3.27 26.22 1.99Q18.42 0.7 15.35 0.7Q10.92 0.7 7.47 2.4Q5.36 3.41 3.75 4.95Q2.72 5.94 1.9 7.14Q0.32 9.46 -0.68 13.62L0.41 14.26Q1.43 11.01 2.81 9.37Q4.21 7.73 6.7 6.76Q9.19 5.76 11.25 5.88L14.94 6.09Q11.3 8.64 9.31 10.75Q6.18 14.11 4.57 17.81Q3.8 19.57 3.39 21.41Q2.95 23.43 2.95 25.54Q2.95 29.55 4.42 32.72Q5.91 35.88 8.23 38.11Q10.39 40.19 12.96 41.4Q13.14 41.49 13.33 41.57Q14.37 42.02 15.44 42.38Q19.32 43.67 23.64 43.67Q29.29 43.67 33.6 41.45Q36.39 39.99 38.52 37.86Q39.67 36.7 40.63 35.35Q42.33 32.98 43.62 29.06L42.53 28.53Q40.28 32.51 37.64 34.65Q35 36.76 30.55 38.11L30.55 8.49Q32.6 8.66 34.04 8.66Q36.73 8.66 38.78 7.73Q40.83 6.78 41.88 5.17Q41.9 5.15 41.92 5.12Q43 3.48 43.62 0.64ZM113.29 0.17L111.91 0.17Q112.09 3.3 113.02 5.12Q113.36 5.77 113.84 6.28Q114.68 7.2 115.95 7.73Q118.62 8.78 122.34 8.78Q125.85 8.78 130.69 8.28Q125.42 11.42 123.54 14.32Q121.69 17.19 121.69 21.79Q121.69 23.05 121.75 24.75Q120.82 24.46 120 24.31Q119.2 24.16 118.53 24.16Q116.6 24.16 115.12 24.98Q114.82 25.14 114.55 25.33Q112.91 26.51 111.91 29.03L112.85 29.96Q113.99 28.59 114.66 28.15Q115.04 27.9 115.44 27.8Q115.77 27.71 116.13 27.71Q116.43 27.71 116.72 27.76Q117.93 27.98 118.97 29.14Q119.47 29.69 119.78 30.34Q120.26 31.34 120.26 32.57Q120.26 33.05 120.2 33.52Q119.95 35.35 118.74 37.05Q117.21 39.19 112.44 42.53L113.29 43.67Q122.75 37.46 125.24 34.18Q126.46 32.56 127.08 30.74Q127.73 28.84 127.73 26.71L127.5 16.31Q127.5 13.7 128.67 12.03Q129.87 10.33 133.44 8.28L134.2 8.28Q132.83 10.57 132.39 12.33Q131.98 14.08 131.98 17.81Q131.98 19.91 132.04 21.88Q132.1 24.69 132.1 26.13Q132.1 30.08 130.63 32.66Q129.19 35.21 124.65 38.46Q120.11 41.71 114.11 44.82L114.96 45.93Q119.59 43.38 123.72 42.24Q127.85 41.07 132.68 41.07Q139.8 41.07 149.12 43.67Q152.19 41.04 157.91 37.43Q157.55 22.96 157.06 18.71Q156.35 12.65 154.21 9.19Q152.71 6.76 150.56 5.21Q149.66 4.56 148.65 4.07Q145.25 2.4 140.39 2.4Q138.77 2.4 132.24 2.66Q121.43 3.07 119.41 3.07Q116.25 3.07 114.84 2.25Q114.7 2.17 114.57 2.07Q113.69 1.44 113.29 0.17ZM58.74 2.4L58.44 1.69Q56.3 1.99 54.66 2.78Q53.02 3.57 51.24 5.27Q49.71 3.92 48.77 3.39Q47.84 2.83 46.28 2.4L45.96 3.1Q47.87 4.18 48.51 5.53Q49.16 6.88 49.16 10.51L49.16 37.17L46.84 39.49L52.06 43.67L57.21 39.49L55.13 37.41L55.13 21.09L60.14 17.01Q61.78 18.07 62.4 19.15Q62.81 19.94 62.81 22L62.81 34.27Q62.81 41.04 62.31 42.65Q61.64 44.79 59.44 46.69Q57.24 48.6 51.65 50.91L52.06 52Q58.94 49.56 63.39 46.22Q66.79 43.7 68.05 40.83Q68.84 39.08 68.84 35.27L68.84 22Q68.84 17.81 67.96 16.08Q67.08 14.32 64.18 12.44L55.13 19.65L55.13 10.1Q55.13 6.79 55.89 5.27Q56.66 3.74 58.74 2.4ZM433.27 12.44L424.57 19.5Q424.31 17.65 423.44 16.16Q423.29 15.91 423.13 15.67C422.39 14.55 421.24 13.48 419.67 12.44L411.15 19.33Q411 17.37 410.59 16.31Q410.4 15.82 410.15 15.36Q409.52 14.16 408.57 13.12Q406.61 10.95 406.43 10.63Q406.25 10.3 406.16 9.95Q406.08 9.61 406.08 9.25Q406.08 7.17 409.24 4.97L408.72 4.21Q404.88 6.09 403.35 7.96Q402.69 8.77 402.31 9.7Q401.83 10.89 401.83 12.27C401.83 13.17 401.98 13.97 402.27 14.67Q402.71 15.7 403.97 17.16Q404.76 18.07 404.91 18.66Q405.08 19.21 405.08 21.82L405.08 32.92Q405.08 35.76 404.53 36.76L404.52 36.78Q403.99 37.73 402.68 38.25L402.68 38.96Q405.82 39.13 408.45 40.22Q411.12 41.27 414.02 43.67Q417.12 40.54 420.23 40.54Q423.54 40.54 428.49 43.67Q430.66 41.77 432.77 40.6Q434.88 39.43 437.95 38.46L437.95 20.71Q437.95 17.98 436.81 15.93Q435.99 14.41 433.27 12.44ZM349.45 17.31Q347.43 16.66 344.64 15.05L344.64 5.82Q347.16 5.06 349.24 5.06Q352.36 5.06 355.08 6.09Q356.63 6.68 358.06 7.61Q360.4 9.11 361.92 11.2Q362.96 12.62 363.63 14.32Q360.64 16.34 358.38 17.13Q358.26 17.18 358.14 17.22Q356.02 17.92 353.67 17.92Q351.59 17.92 349.68 17.38Q349.56 17.34 349.45 17.31ZM16.66 6.23L18.22 6.38L18.22 28.26Q18.22 31.69 17.75 32.81Q17.28 33.92 15.14 35.71Q11.46 32.88 9.79 29.15Q8.4 26.04 8.4 22.32Q8.4 21.35 8.5 20.39Q8.91 16.6 10.89 12.97Q12.74 9.6 16.66 6.23ZM339.72 7.99L343.3 6.23L343.3 31.49Q343.3 36.41 342.53 38.46Q342.41 38.79 342.26 39.1Q341.48 40.71 339.81 41.89Q338.46 42.85 335.44 43.09Q337.96 41.36 338.84 39.49Q339.72 37.61 339.72 33.22L339.72 7.99ZM24.28 7.41Q26.42 7.84 29.2 8.23L29.2 38.46Q26.66 38.78 25.37 38.78Q22.93 38.78 20.3 38.08Q18.77 37.67 16.31 36.47Q21.24 32.54 22.88 30.73Q23.78 29.67 24.02 28.85Q24.28 28 24.28 24.92L24.28 7.41ZM464.61 26.86L457.85 23.31L463.47 16.14Q464.97 14.23 465.49 13.03C465.85 12.23 466.02 11.41 466.02 10.57Q466.02 9.5 465.51 8.8Q465.43 8.7 465.35 8.61Q464.85 8.02 464.26 7.89Q464.08 7.84 463.88 7.84Q463.75 7.84 463.61 7.87Q463.16 7.97 462.77 8.4Q462.71 8.46 462.66 8.53Q462.27 9.04 462.27 9.84Q462.27 10.8 463.41 11.83Q464 12.36 464 12.88Q464 12.93 464 12.97Q463.95 13.72 463.09 14.41Q462.18 15.11 460.54 15.11Q459.05 15.11 457.41 14.67Q455.12 14.03 451.37 12.44Q449.79 14.47 448.06 15.64Q446.36 16.78 443.35 17.72L443.35 28.65L449.76 32.1L445.98 37.11L443.32 40.42Q442.47 41.42 442.11 41.77Q441.5 42.36 441.5 42.71Q441.5 43.03 441.82 43.35Q442.14 43.67 442.47 43.67Q442.82 43.67 443.61 43.06Q444.6 42.28 445.73 41.87Q447.03 41.39 448.5 41.39Q450.29 41.39 451.87 41.89Q453.48 42.39 455.65 43.67Q458.17 41.36 460.16 40.39Q462.15 39.43 464.61 39.19L464.61 26.86ZM133.94 12Q134.38 10.42 135.64 8.28L137.49 8.28L137.49 35.71L135.82 35.68Q133.56 35.65 129.28 36.35Q131.63 33.86 132.48 32.13Q133.59 29.82 133.59 27.59L133.35 16.05C133.35 14.8 133.55 13.45 133.94 12ZM142.09 21.26Q140.77 20.79 138.98 19.53L138.98 8.28Q144.81 8.28 147.65 10.63Q150.49 12.94 151.05 19.53Q149.23 20.76 147.89 21.26Q146.54 21.73 144.99 21.73Q143.43 21.73 142.09 21.26ZM94.71 22.08L86.45 12.44Q81.59 14.93 80.27 15.55Q78.45 16.37 75.7 17.37L75.7 34.12Q75.7 37 75.35 37.87Q75.34 37.89 75.34 37.9Q75.01 38.73 74.03 39.31L74.03 40.04Q77.49 40.77 79.36 41.45Q81.24 42.12 84.14 43.67L93.63 37.05L92.98 36.17L88.38 39.31L81.59 36.61L81.59 31.28L94.71 22.08ZM184.27 17.75L179.85 12.44L173.26 18.19Q173.26 16.63 172.67 15.75Q171.76 14.35 169.27 12.44L163.09 17.75L163.79 18.6Q164.97 17.42 165.64 17.42Q165.71 17.42 165.79 17.44Q166.32 17.52 166.75 18.19Q167.28 18.92 167.28 21.17L167.28 33.13Q167.28 35.74 166.87 36.67Q166.49 37.58 165.2 38.49L165.2 39.13Q167.13 39.66 168.75 40.6Q170.39 41.54 172.79 43.67L180.29 37.67L179.61 36.73L176.6 39.13L173.26 36.73L173.26 19.65L176.16 17.01L179.85 21.67L184.27 17.75ZM209.32 14.11L208.27 13.7Q207.51 14.79 207.18 15.02Q206.86 15.23 206.25 15.23Q204.9 15.23 202.35 14.47C200.67 13.96 199.12 13.28 197.69 12.44Q195.96 14.25 193.87 14.87Q192.78 15.2 191.6 15.2Q191.04 15.2 189.9 15.08L189.49 15.9L193 23.4Q189.49 27.5 188.05 30.58Q187.7 31.35 187.46 32.15Q186.97 33.8 186.97 35.59Q186.97 39.57 191.98 43.67L200.88 36.64Q200.97 39.13 201.73 40.54Q202.5 41.92 204.75 43.67L211.28 38.28L210.64 37.32Q209.5 38.23 209.26 38.37Q208.88 38.55 208.53 38.55Q208.4 38.55 208.28 38.52Q207.76 38.4 207.36 37.79Q206.89 37 206.89 33.89L206.89 21.41Q206.89 19.18 207.3 17.89Q207.74 16.58 209.32 14.11ZM236.22 16.72L227.1 12.44Q226.12 13.06 225.1 13.61Q221.09 15.74 216.47 16.72L216.47 37.93L223.38 42.91L216.47 51L216.88 52Q221.95 50.62 225.82 50.62Q227.43 50.62 229.21 50.94Q231 51.29 232.96 52Q238.74 49.3 240.05 48.01Q241.28 46.84 241.39 45.57Q241.4 45.44 241.4 45.32Q241.4 43.91 238.85 40.66Q237.27 38.69 236.77 37.2Q236.39 36.06 236.39 32.83L236.39 19.53L241.67 20.56L241.67 13.97L236.22 16.72ZM266.04 38.64L266.04 16.72Q259.86 15.2 255.7 12.44Q251.89 15.7 246.53 17.48L246.53 33.57Q246.53 35.94 246.12 36.94Q245.83 37.7 244.71 38.64L245.01 39.22Q247.67 39.34 249.78 40.1Q252.56 41.1 256.81 43.67Q258.19 42.41 259.68 41.57Q261.65 40.42 266.04 38.64ZM294.46 16.93L289.65 12.44L281.1 19.24L281.1 18.25Q281.1 16.37 280.45 15.32C280.02 14.61 278.95 13.66 277.23 12.44L270.99 17.42L271.69 18.25Q272.87 17.34 273.45 17.34Q273.51 17.34 273.57 17.35Q274.06 17.42 274.45 18.1Q275.09 19.21 275.09 22.41L275.09 37.38L272.81 39.49L278.02 43.67L283.21 39.49L281.1 37.38L281.1 20.71L285.85 16.93L289.04 19.68L289.04 35.82Q289.04 38.99 289.71 40.42Q290.42 41.83 292.85 43.67L299.15 38.52L298.44 37.61Q296.92 38.75 296.51 38.75Q296.46 38.75 296.41 38.75Q296 38.69 295.66 38.14Q295.04 37.2 295.04 35.27L295.04 21.35Q295.04 19.09 295.63 17.81Q296.07 16.84 298.12 14.96L297.3 14.17L294.46 16.93ZM399.22 22.08L390.96 12.44Q386.1 14.93 384.78 15.55Q382.96 16.37 380.21 17.37L380.21 34.12Q380.21 37 379.86 37.87Q379.85 37.89 379.85 37.9Q379.52 38.73 378.54 39.31L378.54 40.04Q382 40.77 383.87 41.45Q385.75 42.12 388.65 43.67L398.14 37.05L397.5 36.17L392.9 39.31L386.1 36.61L386.1 31.28L399.22 22.08ZM349.01 23.31Q347.22 23.78 344.64 25.01L344.64 16.6Q347.52 18.13 349.6 18.74Q350.92 19.12 352.28 19.25Q353.04 19.33 353.81 19.33Q355.81 19.33 357.67 18.83Q358.1 18.71 358.53 18.57Q360.82 17.81 364.04 15.75Q364.36 17.31 364.36 18.54Q364.36 20.27 363.95 22.17Q363.54 24.08 362.72 26.16Q360.08 24.37 357.8 23.61Q355.54 22.84 352.91 22.84Q350.83 22.84 349.01 23.31ZM81.59 16.02L82 15.81L89.29 23.9L81.59 29.29L81.59 16.02ZM386.1 16.02L386.51 15.81L393.8 23.9L386.1 29.29L386.1 16.02ZM190.86 16.22L200.88 19.3L200.88 26.8L194.44 23.78L190.86 16.22ZM222.42 16.72L230.44 19.48L230.44 34.68L226.78 39.08L222.42 35.91L222.42 16.72ZM453.28 27.41L449.26 25.33L449.26 17.07Q452.23 19.17 455.35 19.44Q455.81 19.48 456.27 19.48Q457.7 19.48 459.66 18.92L453.28 27.41ZM411.15 35.79L411.15 20.79L415.6 17.13Q417.48 18.33 418 19.36Q418.53 20.38 418.53 22.9L418.53 38.87L411.15 35.79ZM424.57 35.65L424.57 21L429.14 17.16Q431.16 18.71 431.57 19.53Q432.01 20.33 432.01 22.49L432.01 38.78L424.57 35.65ZM260.09 38.93L252.45 35.79L252.45 17.45Q253.94 17.72 255 18.1Q256.49 18.63 260.09 20.3L260.09 38.93ZM142.38 27.65Q140.97 28.06 138.98 29.2L138.98 21.15Q140.44 22.14 141.97 22.64Q143.21 23.05 144.48 23.12Q144.76 23.14 145.04 23.14Q146.66 23.14 148 22.73Q149.38 22.29 151.25 21.15L151.75 29.08Q149.82 28 148.44 27.62Q147.07 27.21 145.45 27.21Q143.78 27.21 142.38 27.65ZM193.79 24.69L200.88 28L200.88 35.21L196.46 38.78Q193.75 36.85 192.75 34.26Q192.15 32.72 192.15 30.96Q192.15 28.26 193.79 24.69ZM447.24 37.46L454.3 28L458.67 30.34L458.67 38.84Q455.03 36.61 451.67 36.61Q450.76 36.61 449.64 36.82Q448.53 37.02 447.24 37.46ZM144.78 36.53Q142.55 36.09 138.98 35.79L138.98 30.9Q140.83 29.61 142.26 29.11Q143.73 28.62 145.42 28.62Q147.1 28.62 148.5 29.11Q149.94 29.61 151.81 30.9Q151.87 33.36 151.87 33.71Q151.87 33.86 151.81 38.28Q147.04 36.94 144.78 36.53ZM227.78 46.08Q225.43 46.08 221.63 46.69L230.44 36.61Q230.67 38.19 231.24 39.63Q231.65 40.65 232.23 41.59Q233.64 43.88 237.59 47.57L236.39 48.33Q234.19 47.19 232.03 46.63Q229.89 46.08 227.78 46.08Z" fill="#444444" fill-opacity="1.000000" fill-rule="evenodd"/>
</svg>
